<?xml version="1.0" encoding="UTF-8"?><svg id="Layer_2" xmlns="http://www.w3.org/2000/svg" viewBox="0 0 111.34 100">
    <defs>
        <style>
        .cls-1 {
            stroke: #000;
            stroke-miterlimit: 10;
            fill: #000000;
        }
        </style>
    </defs>
    <g id="Mug_Outline">
        <path class="cls-1" d="m107.96,28.85c-2.84-5.99-7.82-10.57-14-12.9-5.28-1.99-10.72-2.17-15.85-2.19-1.89,0-3.76.02-5.61.2V.5H.5v99h72v-20.4c4.74-.04,9.74-.55,14.7-2.23,8.62-2.91,15.64-9.05,19.75-17.28,4.78-9.59,5.19-21.94,1.01-30.74Zm-8.17,27.17c-3.16,6.33-8.54,11.04-15.15,13.27-3.95,1.33-8.12,1.76-12.14,1.8V22.01c1.74-.23,3.6-.26,5.58-.26,4.58.02,9.02.16,13.06,1.68,4.24,1.6,7.65,4.74,9.6,8.85,3.13,6.59,2.74,16.35-.95,23.74Z" />
    </g>
</svg>