<?xml version="1.0" encoding="UTF-8"?><svg id="Layer_2" xmlns="http://www.w3.org/2000/svg" viewBox="0 0 33.07 65.23">
    <defs>
        <style>
        .cls-1 {
            fill: #ffffff;
        }
        </style>
    </defs>
    <g id="Final_Design_-_Front">
        <path class="cls-1" d="m30.92,45.48c1.77-5.29,2.18-9.45,2.15-13.35,0-.15,0-.29,0-.43-.02-1.24-.08-2.46-.15-3.68-.07-1.18-1.25-4.34-1.25-4.34-.49-1.02-1.06-2.15-1.66-3.34-1.05-2.47-2.02-4.14-2.72-5.75-.02-.05-.04-.1-.06-.15-.02-.04-.03-.08-.05-.12-.08-.21-.16-.41-.24-.62-.47-1.28-.75-2.62-.75-4.39,0-1,.03-1.88.07-2.68C26.92,3.56,28.18.06,28.18.06h-.1C28.21,0,28.29,0,28.29,0l-11.75.03L4.78,0s.08,0,.21.06h-.1s1.26,3.51,1.93,6.57c.04.8.07,1.67.07,2.68,0,1.77-.28,3.11-.75,4.39-.08.2-.16.41-.24.62-.02.04-.03.08-.05.12-.02.05-.04.1-.06.15-.7,1.61-1.67,3.27-2.72,5.75-.6,1.19-1.17,2.32-1.66,3.34,0,0-1.19,3.16-1.25,4.34-.07,1.22-.13,2.44-.15,3.68,0,.14,0,.28,0,.43-.03,3.9.38,8.07,2.15,13.35,2.47,9.85,6.19,19.76,6.19,19.76l8.2-.08,8.2.08s3.72-9.91,6.19-19.76Z" />
    </g>
</svg>