<?xml version="1.0" encoding="utf-8"?>
<!-- Generator: Adobe Illustrator 27.1.1, SVG Export Plug-In . SVG Version: 6.00 Build 0)  -->
<svg version="1.1" id="Layer_2_00000173140999907912964960000014783194872690216083_"
	 xmlns="http://www.w3.org/2000/svg" xmlns:xlink="http://www.w3.org/1999/xlink" x="0px" y="0px" viewBox="0 0 580 580"
	 style="enable-background:new 0 0 580 580;" xml:space="preserve">
<g id="Layer_1-2">
	<path d="M125.7,69c66.5,49.9,138,151.1,164.3,205.5C316.3,220.2,387.8,119,454.3,69C502.3,33,580,5.2,580,93.8
		c0,17.7-10.2,148.8-16.1,170.1c-20.7,74-96.1,92.9-163.2,81.4c117.3,20,147.1,86.1,82.7,152.2C361,623.1,307.4,466,293.7,425.8
		c-2.5-7.4-3.7-10.8-3.7-7.9c0-2.9-1.2,0.5-3.7,7.9c-13.7,40.3-67.2,197.4-189.6,71.8c-64.4-66.1-34.6-132.3,82.7-152.2
		c-67.1,11.4-142.6-7.5-163.2-81.4C10.1,242.6,0,111.5,0,93.8C0,5.1,77.7,33,125.7,69L125.7,69z"/>
</g>
</svg>
