<?xml version="1.0" encoding="UTF-8"?><svg id="Layer_2" xmlns="http://www.w3.org/2000/svg" viewBox="0 0 440 440"><defs><style>.cls-1{fill:#fff;}</style></defs><g id="Layer_1-2"><path class="cls-1" d="m130,0C58.32,0,0,58.32,0,130v180c0,71.68,58.32,130,130,130h180c71.68,0,130-58.32,130-130v-180C440,58.32,381.68,0,310,0h-180Zm0,20h180c60.86,0,110,49.14,110,110v180c0,60.86-49.14,110-110,110h-180c-60.86,0-110-49.14-110-110v-180c0-60.86,49.14-110,110-110Zm210,60c-11.05,0-20,8.95-20,20s8.95,20,20,20,20-8.95,20-20-8.95-20-20-20Zm-120,30c-60.63,0-110,49.37-110,110s49.37,110,110,110,110-49.37,110-110-49.37-110-110-110Zm0,20c49.82,0,90,40.18,90,90s-40.18,90-90,90-90-40.18-90-90,40.18-90,90-90Z"/></g></svg>